<svg xmlns="http://www.w3.org/2000/svg" width="1180" height="502" viewBox="0 0 1180 502" role="img" aria-label="Category distribution"><text x="20" y="34" font-size="22" font-family="Arial" fill="#111827">Papers by Taxonomy</text><text x="20" y="79" font-size="14" font-family="Arial" fill="#334155">Foundation Models and Large Language Models</text><rect x="360" y="62" width="760" height="24" rx="4" fill="#2563eb"></rect><text x="1128" y="79" font-size="14" font-family="Arial" fill="#111827">8,096</text><text x="20" y="115" font-size="14" font-family="Arial" fill="#334155">Generative Media, Diffusion, and World Models</text><rect x="360" y="98" width="191" height="24" rx="4" fill="#a855f7"></rect><text x="559" y="115" font-size="14" font-family="Arial" fill="#111827">2,039</text><text x="20" y="151" font-size="14" font-family="Arial" fill="#334155">Data, Evaluation, and Benchmarks</text><rect x="360" y="134" width="182" height="24" rx="4" fill="#f59e0b"></rect><text x="550" y="151" font-size="14" font-family="Arial" fill="#111827">1,947</text><text x="20" y="187" font-size="14" font-family="Arial" fill="#334155">Vision, Multimodal, and Video Understanding</text><rect x="360" y="170" width="115" height="24" rx="4" fill="#0891b2"></rect><text x="483" y="187" font-size="14" font-family="Arial" fill="#111827">1,235</text><text x="20" y="223" font-size="14" font-family="Arial" fill="#334155">Robotics, Embodied AI, and Control</text><rect x="360" y="206" width="78" height="24" rx="4" fill="#7c3aed"></rect><text x="446" y="223" font-size="14" font-family="Arial" fill="#111827">831</text><text x="20" y="259" font-size="14" font-family="Arial" fill="#334155">Efficient Training, Inference, and AI Systems</text><rect x="360" y="242" width="70" height="24" rx="4" fill="#0f766e"></rect><text x="438" y="259" font-size="14" font-family="Arial" fill="#111827">747</text><text x="20" y="295" font-size="14" font-family="Arial" fill="#334155">Agents, Tool Use, and Autonomous Workflows</text><rect x="360" y="278" width="48" height="24" rx="4" fill="#dc2626"></rect><text x="416" y="295" font-size="14" font-family="Arial" fill="#111827">520</text><text x="20" y="331" font-size="14" font-family="Arial" fill="#334155">General Machine Learning and Optimization</text><rect x="360" y="314" width="36" height="24" rx="4" fill="#334155"></rect><text x="404" y="331" font-size="14" font-family="Arial" fill="#111827">394</text><text x="20" y="367" font-size="14" font-family="Arial" fill="#334155">Speech, Audio, NLP, and Code Applications</text><rect x="360" y="350" width="24" height="24" rx="4" fill="#4f46e5"></rect><text x="392" y="367" font-size="14" font-family="Arial" fill="#111827">260</text><text x="20" y="403" font-size="14" font-family="Arial" fill="#334155">Responsible, Safe, and Interpretable AI</text><rect x="360" y="386" width="11" height="24" rx="4" fill="#be123c"></rect><text x="379" y="403" font-size="14" font-family="Arial" fill="#111827">126</text><text x="20" y="439" font-size="14" font-family="Arial" fill="#334155">Graph, Recommendation, and Structured Learning</text><rect x="360" y="422" width="3" height="24" rx="4" fill="#64748b"></rect><text x="371" y="439" font-size="14" font-family="Arial" fill="#111827">34</text><text x="20" y="475" font-size="14" font-family="Arial" fill="#334155">AI for Science, Medicine, and Engineering</text><rect x="360" y="458" width="1" height="24" rx="4" fill="#16a34a"></rect><text x="369" y="475" font-size="14" font-family="Arial" fill="#111827">11</text></svg>