<svg xmlns="http://www.w3.org/2000/svg" width="1180" height="340" viewBox="0 0 1180 340" role="img" aria-label="Monthly paper counts"><text x="20" y="34" font-size="22" font-family="Arial" fill="#111827">Monthly Coverage</text><rect x="58.0" y="221" width="24" height="65" rx="3" fill="#2563eb"></rect><text x="58.0" y="306" font-size="11" font-family="Arial" fill="#475569" transform="rotate(45 58.0,306)">2023-05</text><rect x="86.5" y="221" width="24" height="65" rx="3" fill="#2563eb"></rect><rect x="114.9" y="240" width="24" height="46" rx="3" fill="#2563eb"></rect><rect x="143.4" y="258" width="24" height="28" rx="3" fill="#2563eb"></rect><text x="143.4" y="306" font-size="11" font-family="Arial" fill="#475569" transform="rotate(45 143.4,306)">2023-08</text><rect x="171.9" y="240" width="24" height="46" rx="3" fill="#2563eb"></rect><rect x="200.4" y="250" width="24" height="36" rx="3" fill="#2563eb"></rect><rect x="228.8" y="242" width="24" height="44" rx="3" fill="#2563eb"></rect><text x="228.8" y="306" font-size="11" font-family="Arial" fill="#475569" transform="rotate(45 228.8,306)">2023-11</text><rect x="257.3" y="212" width="24" height="74" rx="3" fill="#2563eb"></rect><rect x="285.8" y="231" width="24" height="55" rx="3" fill="#16a34a"></rect><rect x="314.3" y="221" width="24" height="65" rx="3" fill="#16a34a"></rect><text x="314.3" y="306" font-size="11" font-family="Arial" fill="#475569" transform="rotate(45 314.3,306)">2024-02</text><rect x="342.7" y="231" width="24" height="55" rx="3" fill="#16a34a"></rect><rect x="371.2" y="236" width="24" height="50" rx="3" fill="#16a34a"></rect><rect x="399.7" y="247" width="24" height="39" rx="3" fill="#16a34a"></rect><text x="399.7" y="306" font-size="11" font-family="Arial" fill="#475569" transform="rotate(45 399.7,306)">2024-05</text><rect x="428.2" y="199" width="24" height="87" rx="3" fill="#16a34a"></rect><rect x="456.6" y="199" width="24" height="87" rx="3" fill="#16a34a"></rect><rect x="485.1" y="218" width="24" height="68" rx="3" fill="#16a34a"></rect><text x="485.1" y="306" font-size="11" font-family="Arial" fill="#475569" transform="rotate(45 485.1,306)">2024-08</text><rect x="513.6" y="222" width="24" height="64" rx="3" fill="#16a34a"></rect><rect x="542.1" y="164" width="24" height="122" rx="3" fill="#16a34a"></rect><rect x="570.5" y="214" width="24" height="72" rx="3" fill="#16a34a"></rect><text x="570.5" y="306" font-size="11" font-family="Arial" fill="#475569" transform="rotate(45 570.5,306)">2024-11</text><rect x="599.0" y="187" width="24" height="99" rx="3" fill="#16a34a"></rect><rect x="627.5" y="219" width="24" height="67" rx="3" fill="#2563eb"></rect><rect x="655.9" y="159" width="24" height="127" rx="3" fill="#2563eb"></rect><text x="655.9" y="306" font-size="11" font-family="Arial" fill="#475569" transform="rotate(45 655.9,306)">2025-02</text><rect x="684.4" y="131" width="24" height="155" rx="3" fill="#2563eb"></rect><rect x="712.9" y="171" width="24" height="115" rx="3" fill="#2563eb"></rect><rect x="741.4" y="102" width="24" height="184" rx="3" fill="#2563eb"></rect><text x="741.4" y="306" font-size="11" font-family="Arial" fill="#475569" transform="rotate(45 741.4,306)">2025-05</text><rect x="769.8" y="114" width="24" height="172" rx="3" fill="#2563eb"></rect><rect x="798.3" y="189" width="24" height="97" rx="3" fill="#2563eb"></rect><rect x="826.8" y="172" width="24" height="114" rx="3" fill="#2563eb"></rect><text x="826.8" y="306" font-size="11" font-family="Arial" fill="#475569" transform="rotate(45 826.8,306)">2025-08</text><rect x="855.3" y="151" width="24" height="135" rx="3" fill="#2563eb"></rect><rect x="883.7" y="46" width="24" height="240" rx="3" fill="#2563eb"></rect><rect x="912.2" y="182" width="24" height="104" rx="3" fill="#2563eb"></rect><text x="912.2" y="306" font-size="11" font-family="Arial" fill="#475569" transform="rotate(45 912.2,306)">2025-11</text><rect x="940.7" y="126" width="24" height="160" rx="3" fill="#2563eb"></rect><rect x="969.2" y="141" width="24" height="145" rx="3" fill="#dc2626"></rect><rect x="997.6" y="87" width="24" height="199" rx="3" fill="#dc2626"></rect><text x="997.6" y="306" font-size="11" font-family="Arial" fill="#475569" transform="rotate(45 997.6,306)">2026-02</text><rect x="1026.1" y="97" width="24" height="189" rx="3" fill="#dc2626"></rect><rect x="1054.6" y="107" width="24" height="179" rx="3" fill="#dc2626"></rect><rect x="1083.1" y="49" width="24" height="237" rx="3" fill="#dc2626"></rect><text x="1083.1" y="306" font-size="11" font-family="Arial" fill="#475569" transform="rotate(45 1083.1,306)">2026-05</text><rect x="1111.5" y="68" width="24" height="218" rx="3" fill="#dc2626"></rect><line x1="58" y1="286" x2="1150" y2="286" stroke="#94a3b8"></line><text x="18" y="62" font-size="13" font-family="Arial" fill="#475569">Max monthly count: 945</text></svg>